<svg viewBox="0 0 1000 1000" preserveAspectRatio="none" xmlns="http://www.w3.org/2000/svg" shape-rendering="crispEdges" vector-effect="non-scaling-stroke" xmlns:ns4D="http://www.4D.com" ns4D:vp-deflate="0.5" ns4D:renderOffScreen="false">
	
	<line x1="0" y1="0" x2="1000" y2="0" stroke="#AAAAAA"  vector-effect="non-scaling-stroke" />
	<line x1="0" y1="166.66666666667" x2="1000" y2="166.66666666667" stroke="#AAAAAA"  vector-effect="non-scaling-stroke" />
	<line x1="0" y1="333.33333333333" x2="1000" y2="333.33333333333" stroke="#AAAAAA"  vector-effect="non-scaling-stroke" />
	<line x1="0" y1="500" x2="1000" y2="500" stroke="#AAAAAA"  vector-effect="non-scaling-stroke" />
	<line x1="0" y1="666.66666666667" x2="1000" y2="666.66666666667" stroke="#AAAAAA"  vector-effect="non-scaling-stroke" />
	<line x1="0" y1="833.33333333333" x2="1000" y2="833.33333333333" stroke="#AAAAAA"  vector-effect="non-scaling-stroke" />
	<line x1="0" y1="1000" x2="1000" y2="1000" stroke="#AAAAAA"  vector-effect="non-scaling-stroke" />
	<line x1="0" y1="0" x2="0" y2="1000" stroke="#AAAAAA"  vector-effect="non-scaling-stroke" />
	<line x1="142.85714285714" y1="0" x2="142.85714285714" y2="1000" stroke="#AAAAAA"  vector-effect="non-scaling-stroke" />
	<line x1="285.71428571429" y1="0" x2="285.71428571429" y2="1000" stroke="#AAAAAA"  vector-effect="non-scaling-stroke" />
	<line x1="428.57142857143" y1="0" x2="428.57142857143" y2="1000" stroke="#AAAAAA"  vector-effect="non-scaling-stroke" />
	<line x1="571.42857142857" y1="0" x2="571.42857142857" y2="1000" stroke="#AAAAAA"  vector-effect="non-scaling-stroke" />
	<line x1="714.28571428571" y1="0" x2="714.28571428571" y2="1000" stroke="#AAAAAA"  vector-effect="non-scaling-stroke" />
	<line x1="857.14285714286" y1="0" x2="857.14285714286" y2="1000" stroke="#AAAAAA"  vector-effect="non-scaling-stroke" />
	<line x1="1000" y1="0" x2="1000" y2="1000" stroke="#AAAAAA"  vector-effect="non-scaling-stroke" />

	<rect width="1000" height="1000" fill="none" stroke="#AAAAAA"  vector-effect="non-scaling-stroke"/>
</svg>